<svg width="64" height="64" viewBox="0 0 64 64" fill="none" xmlns="http://www.w3.org/2000/svg">
<g clip-path="url(#clip0_6_288)">
<path d="M32 16.6552L39.5993 10.3226H49.5484V0H24.7742V10.3226H32V16.6552ZM26.8387 8.25806V2.06452H47.4839V8.25806H38.8523L34.0645 12.248V8.25806H26.8387Z" fill="url(#paint0_linear_6_288)"/>
<path d="M28.9032 4.12903H30.9677V6.19354H28.9032V4.12903Z" fill="url(#paint1_linear_6_288)"/>
<path d="M33.0323 4.12903H41.2903V6.19354H33.0323V4.12903Z" fill="url(#paint2_linear_6_288)"/>
<path d="M43.3548 4.12903H45.4194V6.19354H43.3548V4.12903Z" fill="url(#paint3_linear_6_288)"/>
<path d="M52.5469 61.9346L51.7122 53.5784C55.1588 53.0335 57.8064 50.0492 57.8064 46.451V33.0319H53.6774V31.6055C53.6774 30.2023 52.9062 28.9423 51.6663 28.2961C52.8992 27.1636 53.6774 25.5442 53.6774 23.7418V21.6773C53.6774 18.2616 50.8997 15.4839 47.4839 15.4839C44.068 15.4839 41.2903 18.2616 41.2903 21.6773V23.7418C41.2903 26.4141 42.9945 28.6893 45.371 29.5562L39.8306 35.0964H34.0418C33.9264 33.3757 32.7445 31.8757 31.0701 31.3969L26.8387 30.1892V28.3455C28.1023 27.211 28.9032 25.5709 28.9032 23.7418V21.6773C28.9032 18.2616 26.1255 15.4839 22.7097 15.4839C19.2938 15.4839 16.5161 18.2616 16.5161 21.6773V23.7418C16.5161 25.5699 17.317 27.21 18.5806 28.3455V30.1902L14.3493 31.3979C12.5862 31.9004 11.3548 33.5334 11.3548 35.3681V39.2253H7.22581V45.4188H9.29032V61.9346H0V63.999H64V61.9346H52.5469ZM43.3548 45.4188V40.685L50.6694 33.3706C51.1981 32.8419 51.5126 32.1317 51.5832 31.3908C51.5922 31.4629 51.6129 31.5309 51.6129 31.6055V44.3865C51.6129 46.0937 50.2233 47.4832 48.5161 47.4832H40.2581V45.4188H43.3548ZM40.2581 53.6767H45.5176L46.3432 61.9346H40.2581V53.6767ZM47.5922 53.6767H49.6467L50.4723 61.9346H48.4178L47.5922 53.6767ZM53.6774 44.3865V35.0964H55.7419V46.451C55.7419 49.2967 53.4264 51.6122 50.5806 51.6122H40.2581V49.5477H48.5161C51.3619 49.5477 53.6774 47.2322 53.6774 44.3865ZM43.3548 23.7418V21.6773C43.3548 19.4001 45.2067 17.5484 47.4839 17.5484C49.7611 17.5484 51.6129 19.4001 51.6129 21.6773V23.7418C51.6129 26.019 49.7611 27.8707 47.4839 27.8707C45.2067 27.8707 43.3548 26.019 43.3548 23.7418ZM40.6855 37.1609L47.5726 30.2739C47.7883 30.0582 48.0867 29.9352 48.3911 29.9352C49.0292 29.9352 49.5484 30.4544 49.5484 31.0924C49.5484 31.3969 49.4254 31.6953 49.2097 31.911L41.8952 39.2253H30.9677C30.3982 39.2253 29.9355 38.7627 29.9355 38.1931C29.9355 37.6236 30.3982 37.1609 30.9677 37.1609H40.6855ZM18.5806 21.6773C18.5806 19.4001 20.4325 17.5484 22.7097 17.5484C24.9869 17.5484 26.8387 19.4001 26.8387 21.6773V23.7418C26.8387 26.019 24.9869 27.8707 22.7097 27.8707C20.4325 27.8707 18.5806 26.019 18.5806 23.7418V21.6773ZM22.7097 29.9352C23.4345 29.9352 24.127 29.8032 24.7742 29.5738V30.6827C24.5181 31.0778 23.807 31.9997 22.7097 31.9997C21.6124 31.9997 20.9012 31.0778 20.6452 30.6827V29.5738C21.2923 29.8032 21.9849 29.9352 22.7097 29.9352ZM13.4194 35.3681C13.4194 34.4502 14.0358 33.6347 14.9163 33.3827L19.1688 32.168C19.7676 32.9483 20.933 34.0642 22.7097 34.0642C24.4864 34.0642 25.6517 32.9483 26.2505 32.167L30.503 33.3817C31.2938 33.608 31.8453 34.2955 31.9556 35.0954H30.9677C29.2606 35.0954 27.871 36.485 27.871 38.1921C27.871 38.5555 27.9451 38.9002 28.061 39.2243H13.4194V35.3681ZM9.29032 41.2898H41.2903V43.3543H9.29032V41.2898ZM11.3548 49.5477H14.4516V47.4832H11.3548V45.4188H38.1935V47.4832H16.5161V49.5477H38.1935V61.9346H35.7349L33.6704 57.8056H15.878L13.8135 61.9346H11.3548V49.5477ZM33.4264 61.9346H16.122L17.1542 59.8701H32.3942L33.4264 61.9346Z" fill="url(#paint4_linear_6_288)"/>
</g>
<defs>
<linearGradient id="paint0_linear_6_288" x1="37.1613" y1="0" x2="37.1613" y2="16.6552" gradientUnits="userSpaceOnUse">
<stop offset="0.760417" stop-color="#2351DC"/>
<stop offset="1" stop-color="#2351DC" stop-opacity="0"/>
</linearGradient>
<linearGradient id="paint1_linear_6_288" x1="29.9355" y1="4.12903" x2="29.9355" y2="6.19354" gradientUnits="userSpaceOnUse">
<stop offset="0.760417" stop-color="#2351DC"/>
<stop offset="1" stop-color="#2351DC" stop-opacity="0"/>
</linearGradient>
<linearGradient id="paint2_linear_6_288" x1="37.1613" y1="4.12903" x2="37.1613" y2="6.19354" gradientUnits="userSpaceOnUse">
<stop offset="0.760417" stop-color="#2351DC"/>
<stop offset="1" stop-color="#2351DC" stop-opacity="0"/>
</linearGradient>
<linearGradient id="paint3_linear_6_288" x1="44.3871" y1="4.12903" x2="44.3871" y2="6.19354" gradientUnits="userSpaceOnUse">
<stop offset="0.760417" stop-color="#2351DC"/>
<stop offset="1" stop-color="#2351DC" stop-opacity="0"/>
</linearGradient>
<linearGradient id="paint4_linear_6_288" x1="32" y1="15.4839" x2="32" y2="63.999" gradientUnits="userSpaceOnUse">
<stop offset="0.760417" stop-color="#2351DC"/>
<stop offset="1" stop-color="#2351DC" stop-opacity="0"/>
</linearGradient>
<clipPath id="clip0_6_288">
<rect width="64" height="64" fill="white"/>
</clipPath>
</defs>
</svg>
