<svg width="278" height="22" viewBox="0 0 278 22" fill="none" xmlns="http://www.w3.org/2000/svg">
<path d="M5.784 17.24C7.12267 17.24 8.216 16.8987 9.064 16.216C9.912 15.528 10.4933 14.608 10.808 13.456L9.608 13.144C9.36267 14.0507 8.92267 14.7733 8.288 15.312C7.65333 15.8453 6.81867 16.112 5.784 16.112C4.88267 16.112 4.128 15.9067 3.52 15.496C2.91733 15.08 2.464 14.5067 2.16 13.776C1.86133 13.0453 1.71467 12.2 1.72 11.24C1.73067 10.28 1.88533 9.43467 2.184 8.704C2.48267 7.968 2.93067 7.39467 3.528 6.984C4.13067 6.57333 4.88267 6.368 5.784 6.368C6.81867 6.368 7.65333 6.63733 8.288 7.176C8.92267 7.70933 9.36267 8.42933 9.608 9.336L10.808 9.024C10.4933 7.872 9.912 6.95467 9.064 6.272C8.216 5.584 7.12267 5.24 5.784 5.24C4.63733 5.24 3.66933 5.49333 2.88 6C2.09067 6.50667 1.49333 7.21067 1.088 8.112C0.682667 9.01333 0.48 10.056 0.48 11.24C0.48 12.4187 0.682667 13.4613 1.088 14.368C1.49333 15.2693 2.09067 15.9733 2.88 16.48C3.66933 16.9867 4.63733 17.24 5.784 17.24ZM15.7011 17.24C16.5545 17.24 17.2851 17.048 17.8931 16.664C18.5065 16.28 18.9758 15.7467 19.3011 15.064C19.6318 14.376 19.7971 13.5787 19.7971 12.672C19.7971 11.7813 19.6345 10.9947 19.3091 10.312C18.9891 9.624 18.5225 9.088 17.9091 8.704C17.3011 8.31467 16.5651 8.12 15.7011 8.12C14.8585 8.12 14.1305 8.312 13.5171 8.696C12.9091 9.07467 12.4398 9.60533 12.1091 10.288C11.7785 10.9707 11.6131 11.7653 11.6131 12.672C11.6131 13.5627 11.7731 14.352 12.0931 15.04C12.4185 15.728 12.8851 16.2667 13.4931 16.656C14.1065 17.0453 14.8425 17.24 15.7011 17.24ZM15.7011 16.112C14.7678 16.112 14.0611 15.8 13.5811 15.176C13.1011 14.5467 12.8611 13.712 12.8611 12.672C12.8611 11.664 13.0931 10.8427 13.5571 10.208C14.0211 9.568 14.7358 9.248 15.7011 9.248C16.6558 9.248 17.3678 9.56 17.8371 10.184C18.3118 10.8027 18.5491 11.632 18.5491 12.672C18.5491 13.6907 18.3145 14.52 17.8451 15.16C17.3758 15.7947 16.6611 16.112 15.7011 16.112ZM21.0739 20.84H22.2579V15.968C22.5672 16.3627 22.9485 16.6747 23.4019 16.904C23.8552 17.128 24.3752 17.24 24.9619 17.24C25.7725 17.24 26.4632 17.04 27.0339 16.64C27.6045 16.2347 28.0392 15.688 28.3379 15C28.6419 14.312 28.7939 13.536 28.7939 12.672C28.7939 11.8133 28.6419 11.04 28.3379 10.352C28.0392 9.664 27.6072 9.12 27.0419 8.72C26.4765 8.32 25.7992 8.12 25.0099 8.12C24.3699 8.12 23.8072 8.248 23.3219 8.504C22.8419 8.75467 22.4445 9.104 22.1299 9.552V8.36H21.0739V20.84ZM24.8419 16.144C24.2285 16.144 23.7219 15.9947 23.3219 15.696C22.9219 15.392 22.6232 14.9787 22.4259 14.456C22.2285 13.9333 22.1299 13.3387 22.1299 12.672C22.1299 11.6533 22.3512 10.824 22.7939 10.184C23.2419 9.53867 23.9165 9.216 24.8179 9.216C25.4365 9.216 25.9459 9.368 26.3459 9.672C26.7512 9.976 27.0525 10.3893 27.2499 10.912C27.4472 11.4347 27.5459 12.0213 27.5459 12.672C27.5459 13.328 27.4445 13.9173 27.2419 14.44C27.0445 14.9627 26.7459 15.3787 26.3459 15.688C25.9459 15.992 25.4445 16.144 24.8419 16.144ZM30.9901 20.84H32.1661L36.8061 8.36H35.6061L32.9901 15.464L30.1501 8.36H28.9021L32.4141 16.976L30.9901 20.84ZM37.7156 17H38.8916V12.688C38.8916 12.1707 38.9503 11.656 39.0676 11.144C39.1903 10.6267 39.4676 10.1973 39.8996 9.856C40.2143 9.6 40.5556 9.45333 40.9236 9.416C41.297 9.37333 41.6436 9.38933 41.9636 9.464V8.36C41.585 8.264 41.1556 8.26133 40.6756 8.352C40.1956 8.43733 39.785 8.62933 39.4436 8.928C39.1876 9.12 38.9636 9.38667 38.7716 9.728V8.36H37.7156V17ZM43.1612 6.72H44.3372V5.4H43.1612V6.72ZM43.1612 17H44.3372V8.36H43.1612V17ZM49.6076 17.24C50.189 17.24 50.7063 17.128 51.1596 16.904C51.613 16.68 51.9943 16.3707 52.3036 15.976V16.864C52.309 17.8773 52.109 18.6427 51.7036 19.16C51.2983 19.6773 50.6263 19.936 49.6876 19.936C49.2343 19.936 48.789 19.8293 48.3516 19.616C47.9143 19.408 47.5783 19.064 47.3436 18.584L46.2796 19.176C46.6476 19.848 47.141 20.3333 47.7596 20.632C48.3836 20.9307 49.0263 21.08 49.6876 21.08C50.7436 21.08 51.5863 20.8507 52.2156 20.392C52.845 19.9333 53.237 19.2213 53.3916 18.256C53.429 18.0373 53.453 17.8133 53.4636 17.584C53.4796 17.36 53.4876 17.1253 53.4876 16.88V8.36H52.4396V9.552C52.125 9.104 51.725 8.75467 51.2396 8.504C50.7596 8.248 50.1996 8.12 49.5596 8.12C48.7703 8.12 48.093 8.32 47.5276 8.72C46.9623 9.12 46.5276 9.664 46.2236 10.352C45.925 11.04 45.7756 11.8133 45.7756 12.672C45.7756 13.536 45.925 14.312 46.2236 15C46.5276 15.688 46.965 16.2347 47.5356 16.64C48.1116 17.04 48.8023 17.24 49.6076 17.24ZM49.7276 16.144C49.1303 16.144 48.629 15.992 48.2236 15.688C47.8236 15.3787 47.5223 14.9627 47.3196 14.44C47.1223 13.9173 47.0236 13.328 47.0236 12.672C47.0236 12.0213 47.1223 11.4347 47.3196 10.912C47.517 10.3893 47.8156 9.976 48.2156 9.672C48.621 9.368 49.133 9.216 49.7516 9.216C50.653 9.216 51.325 9.53867 51.7676 10.184C52.2156 10.824 52.4396 11.6533 52.4396 12.672C52.4396 13.3387 52.341 13.9333 52.1436 14.456C51.9463 14.9787 51.6476 15.392 51.2476 15.696C50.8476 15.9947 50.341 16.144 49.7276 16.144ZM55.2364 17H56.4204V12.392C56.4204 11.416 56.639 10.6507 57.0764 10.096C57.5137 9.54133 58.1484 9.264 58.9804 9.264C59.583 9.264 60.0684 9.41067 60.4364 9.704C60.8044 9.992 61.071 10.3867 61.2364 10.888C61.4017 11.3893 61.4844 11.9573 61.4844 12.592V17H62.6684V12.248C62.6684 11.7627 62.607 11.2773 62.4844 10.792C62.367 10.3067 62.175 9.864 61.9084 9.464C61.6417 9.064 61.287 8.744 60.8444 8.504C60.4017 8.264 59.855 8.144 59.2044 8.144C58.5857 8.144 58.0257 8.264 57.5244 8.504C57.0284 8.73867 56.6204 9.09067 56.3004 9.56V5.48H55.2364V17ZM68.9684 17V15.968C68.3497 16.0693 67.8297 16.0853 67.4084 16.016C66.9924 15.9467 66.6884 15.7333 66.4964 15.376C66.395 15.1893 66.339 14.976 66.3284 14.736C66.323 14.4907 66.3204 14.1867 66.3204 13.824V9.368H68.9684V8.36H66.3204V5.96H65.1524V8.36H63.3044V9.368H65.1524V13.872C65.1524 14.2933 65.1577 14.6693 65.1684 15C65.1844 15.3307 65.2697 15.6533 65.4244 15.968C65.6164 16.352 65.8964 16.6347 66.2644 16.816C66.6377 16.9973 67.059 17.0987 67.5284 17.12C68.003 17.1413 68.483 17.1013 68.9684 17Z" fill="white"/>
<path d="M86 3.25C81.7188 3.25 78.25 6.75 78.25 11C78.25 15.2812 81.7188 18.75 86 18.75C90.25 18.75 93.75 15.2812 93.75 11C93.75 6.75 90.25 3.25 86 3.25ZM86 17.25C82.5312 17.25 79.75 14.4688 79.75 11C79.75 7.5625 82.5312 4.75 86 4.75C89.4375 4.75 92.25 7.5625 92.25 11C92.25 14.4688 89.4375 17.25 86 17.25ZM89.3438 14.0938C89.4062 14.0312 89.4375 13.9375 89.4375 13.8438C89.4375 13.75 89.4062 13.6875 89.375 13.625L88.75 12.7812C88.625 12.5938 88.375 12.5625 88.1875 12.7188C87.9062 12.9688 87.1562 13.5625 86.1562 13.5625C84.5312 13.5625 83.6875 12.25 83.6875 10.9688C83.6875 9.5625 84.625 8.4375 86.125 8.4375C87.0625 8.4375 87.7812 8.9375 88.0625 9.15625C88.2188 9.28125 88.5 9.25 88.5938 9.0625L89.1875 8.1875C89.2188 8.125 89.25 8.0625 89.25 7.96875C89.25 7.875 89.1875 7.78125 89.125 7.71875C88.8438 7.4375 87.8125 6.625 86.0625 6.625C83.5938 6.625 81.6875 8.5 81.6875 10.9688C81.6875 13.4688 83.5 15.4062 86.0938 15.4062C87.9062 15.4062 89.0312 14.4062 89.3438 14.0938Z" fill="white"/>
<path d="M102.8 16.992H110.32V15.864H104.592L108.688 12.168C109.248 11.6667 109.659 11.1813 109.92 10.712C110.187 10.2427 110.32 9.64533 110.32 8.92C110.32 8.232 110.157 7.61067 109.832 7.056C109.512 6.50133 109.072 6.06133 108.512 5.736C107.957 5.40533 107.331 5.24 106.632 5.24C105.923 5.24 105.283 5.4 104.712 5.72C104.147 6.03467 103.699 6.46933 103.368 7.024C103.037 7.57333 102.872 8.2 102.872 8.904H104.072C104.067 8.45067 104.173 8.032 104.392 7.648C104.616 7.264 104.92 6.95467 105.304 6.72C105.688 6.48533 106.125 6.368 106.616 6.368C107.091 6.368 107.517 6.48267 107.896 6.712C108.275 6.936 108.573 7.24 108.792 7.624C109.016 8.008 109.128 8.43733 109.128 8.912C109.128 9.312 109.053 9.696 108.904 10.064C108.755 10.432 108.459 10.816 108.016 11.216L102.808 15.92L102.8 16.992ZM115.525 17.24C116.24 17.24 116.88 17.0747 117.445 16.744C118.01 16.4133 118.458 15.9653 118.789 15.4C119.12 14.8293 119.285 14.1893 119.285 13.48V9C119.285 8.28533 119.12 7.64533 118.789 7.08C118.458 6.51467 118.01 6.06667 117.445 5.736C116.88 5.40533 116.24 5.24 115.525 5.24C114.816 5.24 114.176 5.40533 113.605 5.736C113.04 6.06667 112.592 6.51467 112.261 7.08C111.93 7.64533 111.765 8.28533 111.765 9V13.48C111.765 14.1893 111.93 14.8293 112.261 15.4C112.592 15.9653 113.04 16.4133 113.605 16.744C114.176 17.0747 114.816 17.24 115.525 17.24ZM115.525 16.104C115.056 16.104 114.626 15.9893 114.237 15.76C113.848 15.5253 113.536 15.2133 113.301 14.824C113.072 14.4347 112.957 14.0053 112.957 13.536V8.944C112.957 8.46933 113.072 8.03733 113.301 7.648C113.536 7.25867 113.848 6.94933 114.237 6.72C114.626 6.48533 115.056 6.368 115.525 6.368C116 6.368 116.429 6.48533 116.813 6.72C117.202 6.94933 117.512 7.25867 117.741 7.648C117.976 8.03733 118.093 8.46933 118.093 8.944V13.536C118.093 14.0053 117.976 14.4347 117.741 14.824C117.512 15.2133 117.202 15.5253 116.813 15.76C116.429 15.9893 116 16.104 115.525 16.104ZM120.731 16.992H128.251V15.864H122.523L126.619 12.168C127.179 11.6667 127.589 11.1813 127.851 10.712C128.117 10.2427 128.251 9.64533 128.251 8.92C128.251 8.232 128.088 7.61067 127.763 7.056C127.443 6.50133 127.003 6.06133 126.443 5.736C125.888 5.40533 125.261 5.24 124.563 5.24C123.853 5.24 123.213 5.4 122.643 5.72C122.077 6.03467 121.629 6.46933 121.299 7.024C120.968 7.57333 120.803 8.2 120.803 8.904H122.003C121.997 8.45067 122.104 8.032 122.323 7.648C122.547 7.264 122.851 6.95467 123.235 6.72C123.619 6.48533 124.056 6.368 124.547 6.368C125.021 6.368 125.448 6.48267 125.827 6.712C126.205 6.936 126.504 7.24 126.723 7.624C126.947 8.008 127.059 8.43733 127.059 8.912C127.059 9.312 126.984 9.696 126.835 10.064C126.685 10.432 126.389 10.816 125.947 11.216L120.739 15.92L120.731 16.992ZM131.704 17H132.896V5.48H131.704L129.536 6.776V8.096L131.704 6.792V17ZM141.216 17H142.392V5.48H141.216V17ZM149.125 17H150.349L151.309 14.208H156.429L157.397 17H158.621L154.653 5.48H153.093L149.125 17ZM151.693 13.104L153.861 6.808L156.045 13.104H151.693ZM159.746 17H160.922V5.24H159.746V17ZM163 17H164.176V5.24H163V17ZM168.818 17H169.994V12.688C169.994 12.1707 170.052 11.656 170.17 11.144C170.292 10.6267 170.57 10.1973 171.002 9.856C171.316 9.6 171.658 9.45333 172.026 9.416C172.399 9.37333 172.746 9.38933 173.066 9.464V8.36C172.687 8.264 172.258 8.26133 171.778 8.352C171.298 8.43733 170.887 8.62933 170.546 8.928C170.29 9.12 170.066 9.38667 169.874 9.728V8.36H168.818V17ZM174.263 6.72H175.439V5.4H174.263V6.72ZM174.263 17H175.439V8.36H174.263V17ZM180.71 17.24C181.291 17.24 181.808 17.128 182.262 16.904C182.715 16.68 183.096 16.3707 183.406 15.976V16.864C183.411 17.8773 183.211 18.6427 182.806 19.16C182.4 19.6773 181.728 19.936 180.79 19.936C180.336 19.936 179.891 19.8293 179.454 19.616C179.016 19.408 178.68 19.064 178.446 18.584L177.382 19.176C177.75 19.848 178.243 20.3333 178.862 20.632C179.486 20.9307 180.128 21.08 180.79 21.08C181.846 21.08 182.688 20.8507 183.318 20.392C183.947 19.9333 184.339 19.2213 184.494 18.256C184.531 18.0373 184.555 17.8133 184.566 17.584C184.582 17.36 184.59 17.1253 184.59 16.88V8.36H183.542V9.552C183.227 9.104 182.827 8.75467 182.342 8.504C181.862 8.248 181.302 8.12 180.662 8.12C179.872 8.12 179.195 8.32 178.63 8.72C178.064 9.12 177.63 9.664 177.326 10.352C177.027 11.04 176.878 11.8133 176.878 12.672C176.878 13.536 177.027 14.312 177.326 15C177.63 15.688 178.067 16.2347 178.638 16.64C179.214 17.04 179.904 17.24 180.71 17.24ZM180.83 16.144C180.232 16.144 179.731 15.992 179.326 15.688C178.926 15.3787 178.624 14.9627 178.422 14.44C178.224 13.9173 178.126 13.328 178.126 12.672C178.126 12.0213 178.224 11.4347 178.422 10.912C178.619 10.3893 178.918 9.976 179.318 9.672C179.723 9.368 180.235 9.216 180.854 9.216C181.755 9.216 182.427 9.53867 182.87 10.184C183.318 10.824 183.542 11.6533 183.542 12.672C183.542 13.3387 183.443 13.9333 183.246 14.456C183.048 14.9787 182.75 15.392 182.35 15.696C181.95 15.9947 181.443 16.144 180.83 16.144ZM186.338 17H187.522V12.392C187.522 11.416 187.741 10.6507 188.178 10.096C188.616 9.54133 189.25 9.264 190.082 9.264C190.685 9.264 191.17 9.41067 191.538 9.704C191.906 9.992 192.173 10.3867 192.338 10.888C192.504 11.3893 192.586 11.9573 192.586 12.592V17H193.77V12.248C193.77 11.7627 193.709 11.2773 193.586 10.792C193.469 10.3067 193.277 9.864 193.01 9.464C192.744 9.064 192.389 8.744 191.946 8.504C191.504 8.264 190.957 8.144 190.306 8.144C189.688 8.144 189.128 8.264 188.626 8.504C188.13 8.73867 187.722 9.09067 187.402 9.56V5.48H186.338V17ZM200.07 17V15.968C199.452 16.0693 198.932 16.0853 198.51 16.016C198.094 15.9467 197.79 15.7333 197.598 15.376C197.497 15.1893 197.441 14.976 197.43 14.736C197.425 14.4907 197.422 14.1867 197.422 13.824V9.368H200.07V8.36H197.422V5.96H196.254V8.36H194.406V9.368H196.254V13.872C196.254 14.2933 196.26 14.6693 196.27 15C196.286 15.3307 196.372 15.6533 196.526 15.968C196.718 16.352 196.998 16.6347 197.366 16.816C197.74 16.9973 198.161 17.0987 198.63 17.12C199.105 17.1413 199.585 17.1013 200.07 17ZM204.517 17.232C205.578 17.232 206.41 17 207.013 16.536C207.621 16.0667 207.925 15.424 207.925 14.608C207.925 14.16 207.829 13.784 207.637 13.48C207.45 13.176 207.127 12.912 206.669 12.688C206.215 12.464 205.591 12.2507 204.797 12.048C204.119 11.8773 203.597 11.72 203.229 11.576C202.866 11.432 202.615 11.28 202.477 11.12C202.338 10.9547 202.269 10.7573 202.269 10.528C202.269 10.1173 202.461 9.78933 202.845 9.544C203.229 9.29867 203.727 9.18133 204.341 9.192C204.991 9.20267 205.527 9.35733 205.949 9.656C206.37 9.94933 206.623 10.3493 206.709 10.856L207.909 10.64C207.85 10.1387 207.663 9.69867 207.349 9.32C207.034 8.94133 206.618 8.648 206.101 8.44C205.589 8.22667 205.007 8.12 204.357 8.12C203.706 8.12 203.133 8.224 202.637 8.432C202.146 8.63467 201.762 8.92267 201.485 9.296C201.213 9.664 201.077 10.0933 201.077 10.584C201.077 10.984 201.167 11.3253 201.349 11.608C201.535 11.8853 201.853 12.1333 202.301 12.352C202.749 12.5653 203.362 12.7787 204.141 12.992C204.871 13.1893 205.418 13.36 205.781 13.504C206.149 13.648 206.394 13.8053 206.517 13.976C206.639 14.1413 206.701 14.3573 206.701 14.624C206.701 15.0933 206.511 15.4667 206.133 15.744C205.754 16.0213 205.237 16.16 204.581 16.16C203.909 16.16 203.343 16.016 202.885 15.728C202.426 15.4347 202.135 15.0427 202.013 14.552L200.813 14.752C200.962 15.5307 201.362 16.1387 202.013 16.576C202.669 17.0133 203.503 17.232 204.517 17.232ZM211.942 17H213.118V12.624H216.798L218.918 17H220.27L217.998 12.336C218.643 12.0747 219.139 11.6507 219.486 11.064C219.833 10.4773 220.006 9.808 220.006 9.056C220.006 8.15467 219.763 7.37867 219.278 6.728C218.793 6.07733 218.099 5.68267 217.198 5.544C217.054 5.51733 216.91 5.50133 216.766 5.496C216.627 5.48533 216.502 5.48 216.39 5.48H211.942V17ZM213.118 11.504V6.608H216.358C216.454 6.608 216.566 6.61333 216.694 6.624C216.827 6.62933 216.953 6.64533 217.07 6.672C217.662 6.8 218.097 7.096 218.374 7.56C218.657 8.01867 218.798 8.51733 218.798 9.056C218.798 9.58933 218.657 10.088 218.374 10.552C218.097 11.016 217.662 11.3093 217.07 11.432C216.953 11.4587 216.827 11.4773 216.694 11.488C216.566 11.4987 216.454 11.504 216.358 11.504H213.118ZM225.212 17.24C226.049 17.24 226.798 17.0347 227.46 16.624C228.126 16.2133 228.63 15.6293 228.972 14.872L227.876 14.448C227.326 15.5573 226.422 16.112 225.164 16.112C224.3 16.112 223.622 15.8427 223.132 15.304C222.646 14.7653 222.38 14 222.332 13.008H229.14C229.182 11.4827 228.849 10.288 228.14 9.424C227.436 8.55467 226.444 8.12 225.164 8.12C224.332 8.12 223.609 8.30667 222.996 8.68C222.388 9.05333 221.916 9.584 221.58 10.272C221.244 10.96 221.076 11.776 221.076 12.72C221.076 13.632 221.244 14.4267 221.58 15.104C221.921 15.7813 222.401 16.3067 223.02 16.68C223.644 17.0533 224.374 17.24 225.212 17.24ZM225.196 9.2C226.822 9.2 227.726 10.1413 227.908 12.024H222.356C222.446 11.112 222.734 10.4133 223.22 9.928C223.705 9.44267 224.364 9.2 225.196 9.2ZM233.659 17.232C234.72 17.232 235.552 17 236.155 16.536C236.763 16.0667 237.067 15.424 237.067 14.608C237.067 14.16 236.971 13.784 236.779 13.48C236.592 13.176 236.27 12.912 235.811 12.688C235.358 12.464 234.734 12.2507 233.939 12.048C233.262 11.8773 232.739 11.72 232.371 11.576C232.008 11.432 231.758 11.28 231.619 11.12C231.48 10.9547 231.411 10.7573 231.411 10.528C231.411 10.1173 231.603 9.78933 231.987 9.544C232.371 9.29867 232.87 9.18133 233.483 9.192C234.134 9.20267 234.67 9.35733 235.091 9.656C235.512 9.94933 235.766 10.3493 235.851 10.856L237.051 10.64C236.992 10.1387 236.806 9.69867 236.491 9.32C236.176 8.94133 235.76 8.648 235.243 8.44C234.731 8.22667 234.15 8.12 233.499 8.12C232.848 8.12 232.275 8.224 231.779 8.432C231.288 8.63467 230.904 8.92267 230.627 9.296C230.355 9.664 230.219 10.0933 230.219 10.584C230.219 10.984 230.31 11.3253 230.491 11.608C230.678 11.8853 230.995 12.1333 231.443 12.352C231.891 12.5653 232.504 12.7787 233.283 12.992C234.014 13.1893 234.56 13.36 234.923 13.504C235.291 13.648 235.536 13.8053 235.659 13.976C235.782 14.1413 235.843 14.3573 235.843 14.624C235.843 15.0933 235.654 15.4667 235.275 15.744C234.896 16.0213 234.379 16.16 233.723 16.16C233.051 16.16 232.486 16.016 232.027 15.728C231.568 15.4347 231.278 15.0427 231.155 14.552L229.955 14.752C230.104 15.5307 230.504 16.1387 231.155 16.576C231.811 17.0133 232.646 17.232 233.659 17.232ZM242.017 17.24C242.855 17.24 243.604 17.0347 244.265 16.624C244.932 16.2133 245.436 15.6293 245.777 14.872L244.681 14.448C244.132 15.5573 243.228 16.112 241.969 16.112C241.105 16.112 240.428 15.8427 239.937 15.304C239.452 14.7653 239.185 14 239.137 13.008H245.945C245.988 11.4827 245.655 10.288 244.945 9.424C244.241 8.55467 243.249 8.12 241.969 8.12C241.137 8.12 240.415 8.30667 239.801 8.68C239.193 9.05333 238.721 9.584 238.385 10.272C238.049 10.96 237.881 11.776 237.881 12.72C237.881 13.632 238.049 14.4267 238.385 15.104C238.727 15.7813 239.207 16.3067 239.825 16.68C240.449 17.0533 241.18 17.24 242.017 17.24ZM242.001 9.2C243.628 9.2 244.532 10.1413 244.713 12.024H239.161C239.252 11.112 239.54 10.4133 240.025 9.928C240.511 9.44267 241.169 9.2 242.001 9.2ZM247.241 17H248.417V12.688C248.417 12.1707 248.475 11.656 248.593 11.144C248.715 10.6267 248.993 10.1973 249.425 9.856C249.739 9.6 250.081 9.45333 250.449 9.416C250.822 9.37333 251.169 9.38933 251.489 9.464V8.36C251.11 8.264 250.681 8.26133 250.201 8.352C249.721 8.43733 249.31 8.62933 248.969 8.928C248.713 9.12 248.489 9.38667 248.297 9.728V8.36H247.241V17ZM254.862 17H256.078L259.214 8.36H258.006L255.47 15.464L252.918 8.36H251.726L254.862 17ZM263.515 17.24C264.352 17.24 265.101 17.0347 265.763 16.624C266.429 16.2133 266.933 15.6293 267.275 14.872L266.179 14.448C265.629 15.5573 264.725 16.112 263.467 16.112C262.603 16.112 261.925 15.8427 261.435 15.304C260.949 14.7653 260.683 14 260.635 13.008H267.443C267.485 11.4827 267.152 10.288 266.443 9.424C265.739 8.55467 264.747 8.12 263.467 8.12C262.635 8.12 261.912 8.30667 261.299 8.68C260.691 9.05333 260.219 9.584 259.883 10.272C259.547 10.96 259.379 11.776 259.379 12.72C259.379 13.632 259.547 14.4267 259.883 15.104C260.224 15.7813 260.704 16.3067 261.323 16.68C261.947 17.0533 262.677 17.24 263.515 17.24ZM263.499 9.2C265.125 9.2 266.029 10.1413 266.211 12.024H260.659C260.749 11.112 261.037 10.4133 261.523 9.928C262.008 9.44267 262.667 9.2 263.499 9.2ZM272.09 17.24C272.719 17.24 273.271 17.112 273.746 16.856C274.221 16.5947 274.613 16.24 274.922 15.792V17H275.978V5.48H274.794V9.376C274.479 8.98133 274.09 8.67467 273.626 8.456C273.167 8.232 272.639 8.12 272.042 8.12C271.253 8.12 270.575 8.32 270.01 8.72C269.445 9.12 269.01 9.664 268.706 10.352C268.407 11.04 268.258 11.8133 268.258 12.672C268.258 13.536 268.407 14.312 268.706 15C269.01 15.688 269.447 16.2347 270.018 16.64C270.594 17.04 271.285 17.24 272.09 17.24ZM272.21 16.144C271.613 16.144 271.111 15.992 270.706 15.688C270.306 15.3787 270.005 14.9627 269.802 14.44C269.605 13.9173 269.506 13.328 269.506 12.672C269.506 12.0213 269.605 11.4347 269.802 10.912C269.999 10.3893 270.298 9.976 270.698 9.672C271.103 9.368 271.615 9.216 272.234 9.216C273.135 9.216 273.807 9.53867 274.25 10.184C274.698 10.824 274.922 11.6533 274.922 12.672C274.922 13.3387 274.823 13.9333 274.626 14.456C274.429 14.9787 274.13 15.392 273.73 15.696C273.33 15.9947 272.823 16.144 272.21 16.144Z" fill="white"/>
</svg>
