<svg width="64" height="64" viewBox="0 0 64 64" fill="none" xmlns="http://www.w3.org/2000/svg">
<path d="M57.6 9.6001H28.8V11.7334H57.6V9.6001Z" fill="url(#paint0_linear_8_49)"/>
<path d="M46.9333 13.8667H28.8V16H46.9333V13.8667Z" fill="url(#paint1_linear_8_49)"/>
<path d="M46.9333 18.1333H28.8V20.2666H46.9333V18.1333Z" fill="url(#paint2_linear_8_49)"/>
<path d="M57.6 5.33325H37.3333V7.46659H57.6V5.33325Z" fill="url(#paint3_linear_8_49)"/>
<path d="M35.2 5.33325H33.0667V7.46659H35.2V5.33325Z" fill="url(#paint4_linear_8_49)"/>
<path d="M33.0667 42.6667H30.9333V44.8001H33.0667V42.6667Z" fill="url(#paint5_linear_8_49)"/>
<path d="M17.8208 7.15402L16.3126 5.64575L14.1792 7.77909C13.7628 8.19562 13.7628 8.87082 14.1792 9.28735L16.3126 11.4207L17.8208 9.91242L16.4416 8.53322L17.8208 7.15402Z" fill="url(#paint6_linear_8_49)"/>
<path d="M26.3541 7.77909L24.2208 5.64575L22.7125 7.15402L24.0917 8.53322L22.7125 9.91242L24.2208 11.4207L26.3541 9.28735C26.7705 8.87082 26.7705 8.19562 26.3541 7.77909Z" fill="url(#paint7_linear_8_49)"/>
<path d="M20.3222 4.99489L18.1869 11.3948L20.2096 12.0696L22.3449 5.66975L20.3222 4.99489Z" fill="url(#paint8_linear_8_49)"/>
<path d="M55.4667 33.0666V24.5332H53.3333V33.0666H51.2V22.3999H49.0667V33.0666H46.9333V27.7332H44.8V33.0666H42.6667V26.6666H40.5333V33.0666H38.4V28.7999H36.2667V33.0666H34.1333V35.1999H57.6V33.0666H55.4667Z" fill="url(#paint9_linear_8_49)"/>
<path d="M56.5333 0H7.46667C3.93347 0.00346667 1.07013 2.8668 1.06667 6.4V27.3344V27.344V39.4667V42.6667C1.07013 46.1999 3.93347 49.0632 7.46667 49.0667H20.6741L16.4075 57.6H10.6667C8.89933 57.6 7.46667 59.0327 7.46667 60.8C7.46667 62.5673 8.89933 64 10.6667 64H53.3333C55.1007 64 56.5333 62.5673 56.5333 60.8C56.5333 59.0327 55.1007 57.6 53.3333 57.6H47.5925L43.3259 49.0667H56.5333C60.0665 49.0632 62.9299 46.1999 62.9333 42.6667V6.4C62.9299 2.8668 60.0665 0.00346667 56.5333 0ZM3.2 15.008L5.62453 17.8944C5.8272 18.1359 6.1264 18.2752 6.4416 18.2752H9.70667C10.0219 18.2752 10.3211 18.1359 10.5237 17.8944L12.9493 15.008L15.3429 15.7856L15.6075 19.5435C15.6293 19.8577 15.7891 20.1463 16.0437 20.3317L18.6859 22.2517C18.9415 22.4363 19.2652 22.4991 19.5712 22.4235L23.2331 21.5136L24.7136 23.5499L22.7179 26.7499C22.5525 27.0181 22.5143 27.3457 22.6133 27.6448L23.6235 30.7499C23.7207 31.0493 23.9451 31.2907 24.2368 31.4091L27.7333 32.8267V35.344L24.2347 36.7616C23.9423 36.8795 23.7175 37.1215 23.6213 37.4219L23.3013 38.4H17.1563C19.5467 33.3952 17.4272 27.4001 12.4224 25.0097C9.4828 23.6057 6.04467 23.7148 3.2 25.3024V15.008ZM3.2 27.84C6.65013 25.1484 11.6291 25.7633 14.3205 29.2136C16.3987 31.8773 16.5591 35.5659 14.72 38.4H3.2V27.84ZM53.3333 59.7333C53.9224 59.7333 54.4 60.2109 54.4 60.8C54.4 61.3891 53.9224 61.8667 53.3333 61.8667H10.6667C10.0776 61.8667 9.6 61.3891 9.6 60.8C9.6 60.2109 10.0776 59.7333 10.6667 59.7333H53.3333ZM45.2075 57.6H18.7925L23.0592 49.0667H40.9408L45.2075 57.6ZM60.8 42.6667C60.8 45.0231 58.8897 46.9333 56.5333 46.9333H7.46667C5.11027 46.9333 3.2 45.0231 3.2 42.6667V40.5333H15.2768H15.2864H60.8V42.6667ZM60.8 38.4H25.872L29.2011 37.0507C29.6032 36.8875 29.8664 36.4969 29.8667 36.0629V32.1067C29.8668 31.6723 29.6036 31.2812 29.2011 31.1179L25.4933 29.6181L24.7915 27.4581L26.9056 24.0661C27.1349 23.6976 27.118 23.2269 26.8629 22.8757L24.5376 19.6757C24.2823 19.3241 23.8393 19.1625 23.4176 19.2672L19.5392 20.2272L17.7067 18.896L17.4261 14.9173C17.3956 14.4836 17.1048 14.1117 16.6912 13.9776L12.9312 12.7552C12.5175 12.6235 12.0652 12.7535 11.7845 13.0848L9.21707 16.1408H6.94187L4.37333 13.0848C4.09253 12.7531 3.6396 12.6229 3.2256 12.7552L3.2 12.7648V6.4C3.2 4.0436 5.11027 2.13333 7.46667 2.13333H56.5333C58.8897 2.13333 60.8 4.0436 60.8 6.4V38.4Z" fill="url(#paint10_linear_8_49)"/>
<defs>
<linearGradient id="paint0_linear_8_49" x1="43.2" y1="9.6001" x2="43.2" y2="11.7334" gradientUnits="userSpaceOnUse">
<stop stop-color="#2351DC"/>
<stop offset="1" stop-color="#2351DC" stop-opacity="0"/>
</linearGradient>
<linearGradient id="paint1_linear_8_49" x1="37.8667" y1="13.8667" x2="37.8667" y2="16" gradientUnits="userSpaceOnUse">
<stop stop-color="#2351DC"/>
<stop offset="1" stop-color="#2351DC" stop-opacity="0"/>
</linearGradient>
<linearGradient id="paint2_linear_8_49" x1="37.8667" y1="18.1333" x2="37.8667" y2="20.2666" gradientUnits="userSpaceOnUse">
<stop stop-color="#2351DC"/>
<stop offset="1" stop-color="#2351DC" stop-opacity="0"/>
</linearGradient>
<linearGradient id="paint3_linear_8_49" x1="47.4667" y1="5.33325" x2="47.4667" y2="7.46659" gradientUnits="userSpaceOnUse">
<stop stop-color="#2351DC"/>
<stop offset="1" stop-color="#2351DC" stop-opacity="0"/>
</linearGradient>
<linearGradient id="paint4_linear_8_49" x1="34.1333" y1="5.33325" x2="34.1333" y2="7.46659" gradientUnits="userSpaceOnUse">
<stop stop-color="#2351DC"/>
<stop offset="1" stop-color="#2351DC" stop-opacity="0"/>
</linearGradient>
<linearGradient id="paint5_linear_8_49" x1="32" y1="42.6667" x2="32" y2="44.8001" gradientUnits="userSpaceOnUse">
<stop stop-color="#2351DC"/>
<stop offset="1" stop-color="#2351DC" stop-opacity="0"/>
</linearGradient>
<linearGradient id="paint6_linear_8_49" x1="15.8439" y1="5.64575" x2="15.8439" y2="11.4207" gradientUnits="userSpaceOnUse">
<stop stop-color="#2351DC"/>
<stop offset="1" stop-color="#2351DC" stop-opacity="0"/>
</linearGradient>
<linearGradient id="paint7_linear_8_49" x1="24.6895" y1="5.64575" x2="24.6895" y2="11.4207" gradientUnits="userSpaceOnUse">
<stop stop-color="#2351DC"/>
<stop offset="1" stop-color="#2351DC" stop-opacity="0"/>
</linearGradient>
<linearGradient id="paint8_linear_8_49" x1="19.2546" y1="8.19483" x2="21.2772" y2="8.8697" gradientUnits="userSpaceOnUse">
<stop stop-color="#2351DC"/>
<stop offset="1" stop-color="#2351DC" stop-opacity="0"/>
</linearGradient>
<linearGradient id="paint9_linear_8_49" x1="45.8667" y1="22.3999" x2="45.8667" y2="35.1999" gradientUnits="userSpaceOnUse">
<stop stop-color="#2351DC"/>
<stop offset="1" stop-color="#2351DC" stop-opacity="0"/>
</linearGradient>
<linearGradient id="paint10_linear_8_49" x1="32" y1="0" x2="32" y2="64" gradientUnits="userSpaceOnUse">
<stop offset="0.854167" stop-color="#2351DC"/>
<stop offset="1" stop-color="#2351DC" stop-opacity="0"/>
</linearGradient>
</defs>
</svg>
