<svg width="64" height="64" viewBox="0 0 64 64" fill="none" xmlns="http://www.w3.org/2000/svg">
<g clip-path="url(#clip0_6_266)">
<path d="M34.9092 45.0909C35.7125 45.0909 36.3637 44.4397 36.3637 43.6364C36.3637 42.8331 35.7125 42.1819 34.9092 42.1819C34.1059 42.1819 33.4547 42.8331 33.4547 43.6364C33.4547 44.4397 34.1059 45.0909 34.9092 45.0909Z" fill="#2351DC"/>
<path d="M10.1819 53.8182C10.9852 53.8182 11.6364 53.167 11.6364 52.3637C11.6364 51.5604 10.9852 50.9092 10.1819 50.9092C9.37857 50.9092 8.72737 51.5604 8.72737 52.3637C8.72737 53.167 9.37857 53.8182 10.1819 53.8182Z" fill="#2351DC"/>
<path d="M59.6364 5.81812H10.1819C7.70914 5.81812 5.81827 7.70899 5.81827 10.1817V24.7272C5.81827 25.6 6.40014 26.1817 7.27277 26.1817C8.14539 26.1817 8.72727 25.5999 8.72727 24.7272V10.1819C8.72727 9.30912 9.30914 8.72737 10.1818 8.72737H59.6363C60.509 8.72737 61.0908 9.30924 61.0908 10.1819V45.091C61.0908 45.9637 60.5089 46.5455 59.6363 46.5455H24.7273C23.8545 46.5455 23.2728 47.1274 23.2728 48C23.2728 48.8726 23.8546 49.4545 24.7273 49.4545H27.6364V53.8181C27.6364 54.6909 27.0545 55.2726 26.1819 55.2726H24.7274C23.8546 55.2726 23.2729 55.8545 23.2729 56.7271C23.2729 57.5997 23.8548 58.1816 24.7274 58.1816H45.091C45.9638 58.1816 46.5455 57.5997 46.5455 56.7271C46.5455 55.8545 45.9636 55.2726 45.091 55.2726H43.6365C42.7638 55.2726 42.182 54.6907 42.182 53.8181V49.4545H59.6365C62.1093 49.4545 64.0001 47.5636 64.0001 45.0909V10.1819C64 7.70912 62.1091 5.81812 59.6364 5.81812ZM30.2545 55.2727C30.4 54.8364 30.5454 54.4 30.5454 53.8182V49.4546H39.2726V53.8182C39.2726 54.4001 39.4181 54.8364 39.5635 55.2727H30.2545Z" fill="#2351DC"/>
<path d="M56.7272 37.8181H24.7272C23.8545 37.8181 23.2728 38.4 23.2728 39.2726C23.2728 40.1452 23.8546 40.7271 24.7272 40.7271H56.7272C57.6 40.7271 58.1818 40.1452 58.1818 39.2726C58.1818 38.4 57.6 37.8181 56.7272 37.8181Z" fill="#2351DC"/>
<path d="M16 29.0908H4.36363C1.89088 29.0908 0 30.9818 0 33.4544V53.8181C0 56.2908 1.89088 58.1817 4.36363 58.1817H16C18.4727 58.1817 20.3636 56.2908 20.3636 53.8181V33.4544C20.3636 30.9818 18.4727 29.0908 16 29.0908ZM17.4545 53.8181C17.4545 54.6908 16.8726 55.2726 16 55.2726H4.36363C3.49088 55.2726 2.90913 54.6907 2.90913 53.8181V33.4544C2.90913 32.5817 3.491 31.9999 4.36363 31.9999H16C16.8727 31.9999 17.4545 32.5818 17.4545 33.4544V53.8181Z" fill="#2351DC"/>
</g>
<defs>
<clipPath id="clip0_6_266">
<rect width="64" height="64" fill="white"/>
</clipPath>
</defs>
</svg>
